<svg width="100" height="100" viewBox="0 0 100 100" fill="none" xmlns="http://www.w3.org/2000/svg">
<g clip-path="url(#clip0_6_225)">
<rect x="1" y="1" width="98" height="98" rx="11" stroke="#FBFAF0" stroke-width="2"/>
<mask id="path-2-inside-1_6_225" fill="white">
<path fill-rule="evenodd" clip-rule="evenodd" d="M18 20C16.3431 20 15 21.3431 15 23V28.7883H16.2553V43.2263H15V103C15 104.657 16.3431 106 18 106H81.0511C82.7079 106 84.0511 104.657 84.0511 103V43.2263H82.7959V28.7883H84.0511V23.7664H76.5186V20H18Z"/>
</mask>
<path d="M15 28.7883H13V30.7883H15V28.7883ZM16.2553 28.7883H18.2553V26.7883H16.2553V28.7883ZM16.2553 43.2263V45.2263H18.2553V43.2263H16.2553ZM15 43.2263V41.2263H13V43.2263H15ZM84.0511 43.2263H86.0511V41.2263H84.0511V43.2263ZM82.7959 43.2263H80.7959V45.2263H82.7959V43.2263ZM82.7959 28.7883V26.7883H80.7959V28.7883H82.7959ZM84.0511 28.7883V30.7883H86.0511V28.7883H84.0511ZM84.0511 23.7664H86.0511V21.7664H84.0511V23.7664ZM76.5186 23.7664H74.5186V25.7664H76.5186V23.7664ZM76.5186 20H78.5186V18H76.5186V20ZM17 23C17 22.4477 17.4477 22 18 22V18C15.2386 18 13 20.2386 13 23H17ZM17 28.7883V23H13V28.7883H17ZM16.2553 26.7883H15V30.7883H16.2553V26.7883ZM18.2553 43.2263V28.7883H14.2553V43.2263H18.2553ZM15 45.2263H16.2553V41.2263H15V45.2263ZM17 103V43.2263H13V103H17ZM18 104C17.4477 104 17 103.552 17 103H13C13 105.761 15.2386 108 18 108V104ZM81.0511 104H18V108H81.0511V104ZM82.0511 103C82.0511 103.552 81.6034 104 81.0511 104V108C83.8125 108 86.0511 105.761 86.0511 103H82.0511ZM82.0511 43.2263V103H86.0511V43.2263H82.0511ZM84.0511 41.2263H82.7959V45.2263H84.0511V41.2263ZM84.7959 43.2263V28.7883H80.7959V43.2263H84.7959ZM82.7959 30.7883H84.0511V26.7883H82.7959V30.7883ZM82.0511 23.7664V28.7883H86.0511V23.7664H82.0511ZM76.5186 25.7664H84.0511V21.7664H76.5186V25.7664ZM74.5186 20V23.7664H78.5186V20H74.5186ZM18 22H76.5186V18H18V22Z" fill="#FBFAF0" mask="url(#path-2-inside-1_6_225)"/>
<rect x="22.9053" y="28.533" width="53.2409" height="14.9489" rx="7.47445" stroke="#FBFAF0" stroke-width="2"/>
<rect x="1" y="-1" width="51" height="53" rx="1" transform="matrix(1 0 0 -1 23 104)" stroke="#FBFAF0" stroke-width="2"/>
</g>
<defs>
<clipPath id="clip0_6_225">
<rect width="100" height="100" fill="white"/>
</clipPath>
</defs>
</svg>
