<svg width="133" height="33" viewBox="0 0 133 33" fill="none" xmlns="http://www.w3.org/2000/svg">
<path id="nintendo-logo" d="M17.3955 33C6.96774 32.9964 0 25.5536 0 16.5294C0 7.50515 6.98364 -0.0230721 17.3796 5.31477e-05H115.62C126.016 -0.0230747 133 7.50515 133 16.5294C133 25.5536 126.032 32.9964 115.604 33H17.3955ZM17.4273 4.05945C9.17199 4.07547 4.1047 9.63268 4.1047 16.508C4.1047 23.3816 9.14019 28.9851 17.4273 28.9548H115.573C123.86 28.9833 128.897 23.3816 128.897 16.508C128.897 9.63445 123.83 4.07724 115.574 4.06123L17.4273 4.05945ZM120.852 9.86215C121.603 9.86215 121.975 10.1183 121.975 10.6253C121.975 10.974 121.76 11.2372 121.401 11.328L121.989 12.5109H121.278L120.774 11.4258H120.462V12.5109H119.82V9.86215H120.852ZM120.794 8.82685C119.483 8.82685 118.42 9.89773 118.42 11.2177C118.42 12.5376 119.483 13.6085 120.794 13.6085C122.104 13.6085 123.167 12.5376 123.167 11.2177C123.167 9.89773 122.104 8.82685 120.794 8.82685ZM122.714 11.2194C122.714 12.2868 121.853 13.1531 120.794 13.1531C119.734 13.1531 118.874 12.2868 118.874 11.2194C118.874 10.1521 119.734 9.2858 120.794 9.2858C121.853 9.2858 122.714 10.1503 122.714 11.2194ZM120.462 11.038H120.774C121.14 11.038 121.316 10.9259 121.316 10.6626C121.316 10.3869 121.127 10.2677 120.742 10.2677H120.462V11.038ZM66.8109 17.5113C66.8038 16.6059 66.8232 16.0011 67.1182 15.4852C67.4803 14.8483 68.1461 14.5459 68.7502 14.5424H68.7484C69.3524 14.5459 70.0183 14.8483 70.3803 15.4852C70.6753 16.0028 70.6877 16.6077 70.6806 17.5131L66.8109 17.5113ZM70.6647 20.6261C70.6647 20.6261 70.6683 20.6724 70.6683 21.2523C70.6683 23.1415 69.4337 23.5613 68.7484 23.5613C68.0631 23.5613 66.8073 23.1415 66.8073 21.2523C66.8073 20.6866 66.8109 19.1194 66.8109 19.1194C66.8109 19.1194 75.5484 19.123 75.5484 19.1176C75.5484 15.9138 72.4769 13.2598 68.7042 13.2598C64.9316 13.2598 61.8743 15.8569 61.8743 19.0607C61.8743 22.2644 64.9316 24.8598 68.7042 24.8598C71.834 24.8598 74.478 23.0614 75.2852 20.6225L70.6647 20.6261ZM85.259 13.4324C86.9935 13.3825 90.5118 14.5264 90.4871 18.616C90.4835 19.3418 90.4852 24.2373 90.4852 24.2373H85.8772C85.8772 24.2373 85.8772 18.0984 85.8772 17.4526C85.8772 16.5525 85.0223 15.551 83.7577 15.551C82.4948 15.551 81.5552 16.5525 81.5552 17.4526C81.5552 17.8938 81.5605 24.2373 81.5605 24.2373H76.956L76.9595 13.9073L81.5623 13.9038C81.5623 13.9038 81.557 14.7345 81.5623 14.9906C82.4489 14.1386 83.7277 13.4768 85.259 13.4324ZM47.5643 13.4324C49.2988 13.3825 52.8171 14.5264 52.7924 18.616C52.7888 19.3418 52.7905 24.2373 52.7905 24.2373H48.1825C48.1825 24.2373 48.1825 18.0984 48.1825 17.4526C48.1825 16.5525 47.3276 15.551 46.063 15.551C44.8002 15.551 43.8605 16.5525 43.8605 17.4526C43.8605 17.8938 43.8658 24.2373 43.8658 24.2373H39.2613L39.2595 13.9073L43.8675 13.9038C43.8675 13.9038 43.8622 14.7345 43.8675 14.9906C44.7542 14.1386 46.0313 13.4768 47.5643 13.4324ZM100.484 8.70589H105.062V24.2408H100.477C100.477 24.2408 100.475 23.7392 100.475 23.6431C98.6999 24.7656 96.697 24.7638 95.1375 24.0309C94.7189 23.8352 91.9653 22.5046 91.9653 18.9095C91.9653 16.1825 94.5193 13.2047 97.8627 13.4999C98.9631 13.5978 99.7455 14.0016 100.487 14.4214C100.484 12.0306 100.484 8.70589 100.484 8.70589ZM100.517 19.0234C100.517 19.0234 100.517 17.7283 100.517 17.1769C100.517 15.5795 99.4224 15.1721 98.7017 15.1721C97.9635 15.1721 96.8825 15.5795 96.8825 17.1769C96.8825 17.707 96.8844 19.018 96.8844 19.018C96.8844 19.018 96.8825 20.3059 96.8825 20.8556C96.8825 22.4513 97.9635 22.8693 98.7 22.8693C99.4224 22.8693 100.519 22.4513 100.519 20.8556C100.519 20.1921 100.517 19.0234 100.517 19.0234ZM115.214 18.9931C115.214 18.9931 115.212 20.555 115.212 21.1812C115.212 22.8284 114.246 23.5079 113.317 23.5079C112.386 23.5079 111.417 22.8284 111.417 21.1812C111.417 20.555 111.419 18.954 111.419 18.954C111.419 18.954 111.422 17.4259 111.422 16.7998C111.422 15.1597 112.393 14.4855 113.317 14.4855C114.243 14.4855 115.212 15.1597 115.212 16.7998C115.212 17.4259 115.211 18.584 115.216 18.9985L115.214 18.9931ZM113.351 13.2047C109.606 13.2047 106.572 15.8018 106.572 19.0056C106.572 22.2093 109.608 24.8065 113.351 24.8065C117.095 24.8065 120.13 22.2093 120.13 19.0056C120.13 15.8018 117.095 13.2047 113.351 13.2047ZM32.0569 11.8776V8.70233H36.7056V11.8776H32.0569ZM32.0675 24.2408V13.9091L36.7056 13.9109V24.2409L32.0675 24.2408ZM55.3375 24.2408L55.3393 13.9304H52.8171V12.3971L55.3411 12.3952L55.3375 10.3033H59.9792V12.3934H62.4907V13.9304H59.9792L59.9827 24.2408L55.3375 24.2408ZM13.1919 24.2408L13.1937 8.70589H17.9996L24.6476 19.5392L24.6441 8.70589H29.4129V24.2408H24.6512L17.9678 13.4075V24.2408H13.1919Z" fill="#E60012"/>
</svg>
