<svg width="221" height="55" viewBox="0 0 221 55" fill="none" xmlns="http://www.w3.org/2000/svg">
<path d="M28.9053 55C11.578 54.9941 0 42.5894 0 27.549C0 12.5086 11.6044 -0.0384534 28.8789 8.85794e-05H192.121C209.396 -0.0384578 221 12.5086 221 27.549C221 42.5894 209.422 54.9941 192.095 55H28.9053ZM28.9582 6.76576C15.2407 6.79244 6.82059 16.0545 6.82059 27.5134C6.82059 38.9694 15.1878 48.3085 28.9582 48.2581H192.042C205.812 48.3055 214.182 38.9694 214.182 27.5134C214.182 16.0574 205.762 6.7954 192.045 6.76871L28.9582 6.76576ZM200.814 16.4369C202.061 16.4369 202.681 16.8639 202.681 17.7088C202.681 18.2899 202.323 18.7287 201.727 18.8799L202.704 20.8515H201.521L200.685 19.043H200.166V20.8515H199.1V16.4369H200.814ZM200.717 14.7114C198.54 14.7114 196.773 16.4962 196.773 18.6961C196.773 20.896 198.54 22.6808 200.717 22.6808C202.895 22.6808 204.662 20.896 204.662 18.6961C204.662 16.4962 202.895 14.7114 200.717 14.7114ZM203.907 18.6991C203.907 20.4779 202.478 21.9218 200.717 21.9218C198.956 21.9218 197.527 20.4779 197.527 18.6991C197.527 16.9202 198.956 15.4763 200.717 15.4763C202.478 15.4763 203.907 16.9172 203.907 18.6991ZM200.166 18.3966H200.685C201.292 18.3966 201.586 18.2099 201.586 17.7711C201.586 17.3115 201.272 17.1129 200.632 17.1129H200.166V18.3966ZM111.017 29.1855C111.005 27.6764 111.037 26.6684 111.527 25.8086C112.129 24.7472 113.235 24.2432 114.239 24.2373H114.236C115.24 24.2432 116.346 24.7472 116.948 25.8086C117.438 26.6714 117.458 27.6794 117.447 29.1885L111.017 29.1855ZM117.42 34.3769C117.42 34.3769 117.426 34.454 117.426 35.4205C117.426 38.5691 115.375 39.2688 114.236 39.2688C113.097 39.2688 111.011 38.5691 111.011 35.4205C111.011 34.4777 111.017 31.8657 111.017 31.8657C111.017 31.8657 125.535 31.8716 125.535 31.8627C125.535 26.5231 120.432 22.0996 114.163 22.0996C107.894 22.0996 102.814 26.4282 102.814 31.7678C102.814 37.1074 107.894 41.433 114.163 41.433C119.363 41.433 123.757 38.4356 125.098 34.3709L117.42 34.3769ZM141.671 22.3873C144.553 22.3042 150.399 24.2106 150.358 31.0267C150.352 32.2363 150.355 40.3954 150.355 40.3954H142.698C142.698 40.3954 142.698 30.1639 142.698 29.0877C142.698 27.5875 141.278 25.9183 139.176 25.9183C137.078 25.9183 135.517 27.5875 135.517 29.0877C135.517 29.823 135.525 40.3954 135.525 40.3954H127.874L127.88 23.1789L135.528 23.1729C135.528 23.1729 135.52 24.5575 135.528 24.9844C137.002 23.5643 139.127 22.4614 141.671 22.3873ZM79.0355 22.3873C81.9175 22.3042 87.7637 24.2106 87.7226 31.0267C87.7168 32.2363 87.7196 40.3954 87.7196 40.3954H80.0626C80.0626 40.3954 80.0626 30.1639 80.0626 29.0877C80.0626 27.5875 78.6421 25.9183 76.5408 25.9183C74.4424 25.9183 72.881 27.5875 72.881 29.0877C72.881 29.823 72.8898 40.3954 72.8898 40.3954H65.2387L65.2357 23.1789L72.8927 23.1729C72.8927 23.1729 72.8839 24.5575 72.8927 24.9844C74.366 23.5643 76.488 22.4614 79.0355 22.3873ZM166.969 14.5098H174.577V40.4014H166.958C166.958 40.4014 166.955 39.5653 166.955 39.4052C164.005 41.276 160.677 41.273 158.086 40.0515C157.39 39.7254 152.815 37.5077 152.815 31.5159C152.815 26.9708 157.058 22.0078 162.614 22.4999C164.442 22.663 165.743 23.336 166.975 24.0357C166.969 20.051 166.969 14.5098 166.969 14.5098ZM167.025 31.7056C167.025 31.7056 167.025 29.5472 167.025 28.6281C167.025 25.9658 165.206 25.2868 164.008 25.2868C162.781 25.2868 160.985 25.9658 160.985 28.6281C160.985 29.5117 160.988 31.6967 160.988 31.6967C160.988 31.6967 160.985 33.8432 160.985 34.7593C160.985 37.4188 162.781 38.1155 164.005 38.1155C165.206 38.1155 167.028 37.4188 167.028 34.7593C167.028 33.6535 167.025 31.7056 167.025 31.7056ZM191.446 31.6552C191.446 31.6552 191.443 34.2583 191.443 35.3019C191.443 38.0473 189.838 39.1799 188.294 39.1799C186.747 39.1799 185.136 38.0473 185.136 35.3019C185.136 34.2583 185.139 31.59 185.139 31.59C185.139 31.59 185.145 29.0432 185.145 27.9996C185.145 25.2661 186.759 24.1424 188.294 24.1424C189.832 24.1424 191.443 25.2661 191.443 27.9996C191.443 29.0432 191.44 30.9733 191.449 31.6641L191.446 31.6552ZM188.35 22.0078C182.128 22.0078 177.086 26.3364 177.086 31.676C177.086 37.0156 182.131 41.3442 188.35 41.3442C194.572 41.3442 199.614 37.0156 199.614 31.676C199.614 26.3364 194.572 22.0078 188.35 22.0078ZM53.2675 19.796V14.5039H60.992V19.796H53.2675ZM53.2851 40.4014V23.1818L60.992 23.1849V40.4014L53.2851 40.4014ZM91.9518 40.4014L91.9548 23.2174H87.7638V20.6618L91.9577 20.6587L91.9518 17.1721H99.6646V20.6557H103.838V23.2173H99.6646L99.6705 40.4013L91.9518 40.4014ZM21.9204 40.4014L21.9233 14.5098H29.909L40.9558 32.5654L40.95 14.5098H48.874V40.4014H40.9617L29.8562 22.3458V40.4014H21.9204Z" fill="#FBFAF0"/>
</svg>
