<svg width="444" height="363" viewBox="0 0 444 363" fill="none" xmlns="http://www.w3.org/2000/svg">
<mask id="path-1-inside-1_6_136" fill="white">
<path d="M0.870605 0H443.231V363H0.870605V0Z"/>
</mask>
<path d="M0.870605 0H443.231V363H0.870605V0Z" fill="#E60012"/>
<path d="M0.870605 3H443.231V-3H0.870605V3Z" fill="#AF0F1C" mask="url(#path-1-inside-1_6_136)"/>
<path d="M414.205 23.5142V287.3C414.205 291.543 412.52 295.613 409.519 298.613L376.64 331.493C373.639 334.493 369.569 336.179 365.326 336.179H76.2032C71.9597 336.179 67.89 334.493 64.8895 331.493L32.01 298.613C29.0094 295.613 27.3237 291.543 27.3237 287.3V23.5142" stroke="white" stroke-dasharray="12 12"/>
<path d="M389.589 24.6165V268.086C389.589 272.335 387.899 276.409 384.892 279.411L357.358 306.888C354.359 309.882 350.294 311.563 346.056 311.563H95.1065C90.8687 311.563 86.8039 309.882 83.8043 306.888L56.2711 279.411C53.2634 276.409 51.5732 272.335 51.5732 268.086V24.6165" stroke="white" stroke-dasharray="12 12"/>
<circle cx="39.816" cy="28.6578" r="13.9615" fill="#AF0F1C"/>
<circle cx="402.081" cy="28.6578" r="13.9615" fill="#AF0F1C"/>
</svg>
