<svg width="100" height="100" viewBox="0 0 100 100" fill="none" xmlns="http://www.w3.org/2000/svg">
<rect x="1" y="1" width="98" height="98" rx="11" stroke="#FBFAF0" stroke-width="2"/>
<path d="M9 90C9 90.5523 9.44772 91 10 91H19C19.5523 91 20 90.5523 20 90C20 89.4477 19.5523 89 19 89H11V81C11 80.4477 10.5523 80 10 80C9.44772 80 9 80.4477 9 81V90ZM91 10C91 9.44772 90.5523 9 90 9H81C80.4477 9 80 9.44772 80 10C80 10.5523 80.4477 11 81 11H89V19C89 19.5523 89.4477 20 90 20C90.5523 20 91 19.5523 91 19V10ZM10.7071 90.7071L90.7071 10.7071L89.2929 9.29289L9.29289 89.2929L10.7071 90.7071Z" fill="#FBFAF0"/>
</svg>
